<svg xmlns="http://www.w3.org/2000/svg" viewBox="0 0 400 100" width="400" height="100">
  <!-- White background -->
  <rect width="400" height="100" fill="white"/>

  <!-- ING Text -->
  <g id="ing-text">
    <!-- Letter I -->
    <rect x="20" y="20" width="12" height="60" fill="#003D6A"/>

    <!-- Letter N -->
    <path d="M 50 20 L 50 80 L 62 80 L 62 35 L 88 80 L 100 80 L 100 20 L 88 20 L 88 65 L 62 20 Z" fill="#003D6A"/>

    <!-- Letter G -->
    <path d="M 120 50 C 120 35 130 20 150 20 C 165 20 175 28 178 40 L 165 43 C 163 36 158 32 150 32 C 138 32 132 40 132 50 C 132 60 138 68 150 68 C 156 68 161 65 163 60 L 150 60 L 150 48 L 178 48 L 178 55 C 178 70 168 80 150 80 C 130 80 120 65 120 50 Z" fill="#003D6A"/>
  </g>

  <!-- Lion Logo -->
  <g id="lion" transform="translate(220, 10)">
    <!-- Main lion body -->
    <ellipse cx="60" cy="50" rx="45" ry="38" fill="#FF6200"/>

    <!-- Lion mane circles (decorative) -->
    <circle cx="30" cy="30" r="8" fill="#FF6200"/>
    <circle cx="45" cy="22" r="7" fill="#FF6200"/>
    <circle cx="65" cy="18" r="8" fill="#FF6200"/>
    <circle cx="85" cy="22" r="7" fill="#FF6200"/>
    <circle cx="95" cy="35" r="8" fill="#FF6200"/>
    <circle cx="100" cy="50" r="7" fill="#FF6200"/>
    <circle cx="98" cy="65" r="6" fill="#FF6200"/>
    <circle cx="25" cy="50" r="6" fill="#FF6200"/>
    <circle cx="28" cy="65" r="6" fill="#FF6200"/>

    <!-- Lion face details -->
    <ellipse cx="50" cy="45" rx="3" ry="5" fill="#003D6A"/>
    <ellipse cx="70" cy="45" rx="3" ry="5" fill="#003D6A"/>

    <!-- Lion nose -->
    <ellipse cx="60" cy="55" rx="4" ry="3" fill="#003D6A"/>

    <!-- Lion mouth -->
    <path d="M 60 55 L 55 60 M 60 55 L 65 60" stroke="#003D6A" stroke-width="2" fill="none"/>

    <!-- Lion whiskers -->
    <line x1="35" y1="48" x2="20" y2="45" stroke="#003D6A" stroke-width="1.5"/>
    <line x1="35" y1="52" x2="20" y2="55" stroke="#003D6A" stroke-width="1.5"/>
    <line x1="85" y1="48" x2="100" y2="45" stroke="#003D6A" stroke-width="1.5"/>
    <line x1="85" y1="52" x2="100" y2="55" stroke="#003D6A" stroke-width="1.5"/>

    <!-- Lion tail -->
    <path d="M 95 60 Q 115 65 120 75" stroke="#FF6200" stroke-width="6" fill="none" stroke-linecap="round"/>
    <circle cx="122" cy="78" r="6" fill="#FF6200"/>

    <!-- Front paws -->
    <ellipse cx="50" cy="75" rx="8" ry="6" fill="#FF6200"/>
    <ellipse cx="70" cy="75" rx="8" ry="6" fill="#FF6200"/>
  </g>
</svg>
