<svg xmlns="http://www.w3.org/2000/svg" viewBox="0 0 500 120" width="500" height="120">
  <!-- White background -->
  <rect width="500" height="120" fill="white"/>

  <!-- ING Text in Navy Blue -->
  <g fill="#003D6A">
    <!-- I -->
    <rect x="30" y="30" width="18" height="70"/>

    <!-- N -->
    <path d="M 75 30 L 75 100 L 93 100 L 93 52 L 130 100 L 148 100 L 148 30 L 130 30 L 130 78 L 93 30 Z"/>

    <!-- G -->
    <path d="M 178 65 C 178 45 192 28 218 28 C 238 28 252 38 256 54 L 238 57 C 236 48 229 42 218 42 C 202 42 194 52 194 65 C 194 78 202 88 218 88 C 227 88 234 84 237 77 L 218 77 L 218 63 L 256 63 L 256 72 C 256 92 242 102 218 102 C 192 102 178 85 178 65 Z"/>
  </g>

  <!-- Lion in Orange -->
  <g transform="translate(300, 15)">
    <!-- Main body -->
    <ellipse cx="70" cy="60" rx="50" ry="42" fill="#FF6200"/>

    <!-- Mane circles -->
    <circle cx="35" cy="35" r="9" fill="#FF6200"/>
    <circle cx="52" cy="25" r="8" fill="#FF6200"/>
    <circle cx="70" cy="20" r="9" fill="#FF6200"/>
    <circle cx="88" cy="25" r="8" fill="#FF6200"/>
    <circle cx="105" cy="35" r="9" fill="#FF6200"/>
    <circle cx="112" cy="55" r="8" fill="#FF6200"/>
    <circle cx="110" cy="72" r="7" fill="#FF6200"/>
    <circle cx="30" cy="55" r="7" fill="#FF6200"/>
    <circle cx="32" cy="72" r="7" fill="#FF6200"/>
    <circle cx="40" cy="85" r="6" fill="#FF6200"/>
    <circle cx="100" cy="85" r="6" fill="#FF6200"/>

    <!-- Face features in Navy -->
    <ellipse cx="58" cy="52" rx="3.5" ry="6" fill="#003D6A"/>
    <ellipse cx="82" cy="52" rx="3.5" ry="6" fill="#003D6A"/>

    <!-- Nose -->
    <ellipse cx="70" cy="63" rx="5" ry="3.5" fill="#003D6A"/>

    <!-- Mouth -->
    <path d="M 70 63 L 64 69 M 70 63 L 76 69" stroke="#003D6A" stroke-width="2.5" fill="none" stroke-linecap="round"/>

    <!-- Whiskers -->
    <line x1="42" y1="54" x2="25" y2="50" stroke="#003D6A" stroke-width="2"/>
    <line x1="42" y1="60" x2="25" y2="64" stroke="#003D6A" stroke-width="2"/>
    <line x1="98" y1="54" x2="115" y2="50" stroke="#003D6A" stroke-width="2"/>
    <line x1="98" y1="60" x2="115" y2="64" stroke="#003D6A" stroke-width="2"/>

    <!-- Front paws -->
    <ellipse cx="58" cy="88" rx="10" ry="7" fill="#FF6200"/>
    <ellipse cx="82" cy="88" rx="10" ry="7" fill="#FF6200"/>

    <!-- Tail -->
    <path d="M 110 70 Q 130 75 137 88" stroke="#FF6200" stroke-width="7" fill="none" stroke-linecap="round"/>
    <circle cx="140" cy="92" r="7" fill="#FF6200"/>

    <!-- Paw details -->
    <line x1="54" y1="88" x2="54" y2="92" stroke="#003D6A" stroke-width="1"/>
    <line x1="58" y1="88" x2="58" y2="92" stroke="#003D6A" stroke-width="1"/>
    <line x1="62" y1="88" x2="62" y2="92" stroke="#003D6A" stroke-width="1"/>
    <line x1="78" y1="88" x2="78" y2="92" stroke="#003D6A" stroke-width="1"/>
    <line x1="82" y1="88" x2="82" y2="92" stroke="#003D6A" stroke-width="1"/>
    <line x1="86" y1="88" x2="86" y2="92" stroke="#003D6A" stroke-width="1"/>
  </g>
</svg>
